<svg xmlns="http://www.w3.org/2000/svg" width="1600" height="920" viewBox="0 0 1600 920">
<rect width="1600" height="920" fill="#F3F4F6"/>
<rect x="45" y="45" width="680" height="365" fill="#FFFFFF" stroke="#D9DEE7" rx="6"/>
<text x="63.0" y="79.0" font-family="Arial, Helvetica, sans-serif" font-size="30" font-weight="700" text-anchor="start" fill="#22272E">a</text>
<text x="95.0" y="78.0" font-family="Arial, Helvetica, sans-serif" font-size="20" font-weight="700" text-anchor="start" fill="#22272E">Salt-treatment germination trajectory</text>
<line x1="120" y1="345.0" x2="655" y2="345.0" stroke="#D9DEE7" stroke-width="1"/>
<text x="110.0" y="349.0" font-family="Arial, Helvetica, sans-serif" font-size="12" font-weight="400" text-anchor="end" fill="#66707A">0</text>
<line x1="120" y1="290.0" x2="655" y2="290.0" stroke="#D9DEE7" stroke-width="1"/>
<text x="110.0" y="294.0" font-family="Arial, Helvetica, sans-serif" font-size="12" font-weight="400" text-anchor="end" fill="#66707A">25</text>
<line x1="120" y1="235.0" x2="655" y2="235.0" stroke="#D9DEE7" stroke-width="1"/>
<text x="110.0" y="239.0" font-family="Arial, Helvetica, sans-serif" font-size="12" font-weight="400" text-anchor="end" fill="#66707A">50</text>
<line x1="120" y1="180.0" x2="655" y2="180.0" stroke="#D9DEE7" stroke-width="1"/>
<text x="110.0" y="184.0" font-family="Arial, Helvetica, sans-serif" font-size="12" font-weight="400" text-anchor="end" fill="#66707A">75</text>
<line x1="120" y1="125.0" x2="655" y2="125.0" stroke="#D9DEE7" stroke-width="1"/>
<text x="110.0" y="129.0" font-family="Arial, Helvetica, sans-serif" font-size="12" font-weight="400" text-anchor="end" fill="#66707A">100</text>
<line x1="120" y1="345" x2="655" y2="345" stroke="#8B949E" stroke-width="1.2"/>
<line x1="120" y1="125" x2="120" y2="345" stroke="#8B949E" stroke-width="1.2"/>
<text x="120.0" y="113.0" font-family="Arial, Helvetica, sans-serif" font-size="13" font-weight="400" text-anchor="start" fill="#66707A">Germination (%)</text>
<text x="387.5" y="385.0" font-family="Arial, Helvetica, sans-serif" font-size="13" font-weight="400" text-anchor="middle" fill="#66707A">Days after sowing</text>
<polyline points="120.0,336.2 209.2,304.3 298.3,258.1 387.5,221.8 476.7,195.4 565.8,174.5 655.0,164.6" fill="none" stroke="#FFB3BA" stroke-width="4" stroke-linecap="round"/>
<text x="665.0" y="169.6" font-family="Arial, Helvetica, sans-serif" font-size="13" font-weight="700" text-anchor="start" fill="#FFB3BA">A</text>
<polyline points="120.0,336.2 209.2,313.1 298.3,277.9 387.5,249.3 476.7,227.3 565.8,213.0 655.0,204.2" fill="none" stroke="#BAE1FF" stroke-width="4" stroke-linecap="round"/>
<text x="665.0" y="209.2" font-family="Arial, Helvetica, sans-serif" font-size="13" font-weight="700" text-anchor="start" fill="#BAE1FF">B</text>
<polyline points="120.0,340.6 209.2,317.5 298.3,286.7 387.5,261.4 476.7,243.8 565.8,230.6 655.0,221.8" fill="none" stroke="#BAFFC9" stroke-width="4" stroke-linecap="round"/>
<text x="665.0" y="226.8" font-family="Arial, Helvetica, sans-serif" font-size="13" font-weight="700" text-anchor="start" fill="#BAFFC9">C</text>
<polyline points="120.0,340.6 209.2,324.1 298.3,302.1 387.5,284.5 476.7,271.3 565.8,261.4 655.0,257.0" fill="none" stroke="#FFD59E" stroke-width="4" stroke-linecap="round"/>
<text x="665.0" y="262.0" font-family="Arial, Helvetica, sans-serif" font-size="13" font-weight="700" text-anchor="start" fill="#FFD59E">D</text>
<polyline points="120.0,336.2 209.2,308.7 298.3,269.1 387.5,238.3 476.7,213.0 565.8,195.4 655.0,186.6" fill="none" stroke="#D7C7FF" stroke-width="4" stroke-linecap="round"/>
<text x="665.0" y="191.6" font-family="Arial, Helvetica, sans-serif" font-size="13" font-weight="700" text-anchor="start" fill="#D7C7FF">E</text>
<rect x="770" y="45" width="785" height="365" fill="#FFFFFF" stroke="#D9DEE7" rx="6"/>
<text x="788.0" y="79.0" font-family="Arial, Helvetica, sans-serif" font-size="30" font-weight="700" text-anchor="start" fill="#22272E">b</text>
<text x="820.0" y="78.0" font-family="Arial, Helvetica, sans-serif" font-size="20" font-weight="700" text-anchor="start" fill="#22272E">Day 7 germination under control and salt</text>
<line x1="850" y1="345.0" x2="1450" y2="345.0" stroke="#D9DEE7" stroke-width="1"/>
<text x="840.0" y="349.0" font-family="Arial, Helvetica, sans-serif" font-size="12" font-weight="400" text-anchor="end" fill="#66707A">0</text>
<line x1="850" y1="292.5" x2="1450" y2="292.5" stroke="#D9DEE7" stroke-width="1"/>
<text x="840.0" y="296.5" font-family="Arial, Helvetica, sans-serif" font-size="12" font-weight="400" text-anchor="end" fill="#66707A">25</text>
<line x1="850" y1="240.0" x2="1450" y2="240.0" stroke="#D9DEE7" stroke-width="1"/>
<text x="840.0" y="244.0" font-family="Arial, Helvetica, sans-serif" font-size="12" font-weight="400" text-anchor="end" fill="#66707A">50</text>
<line x1="850" y1="187.5" x2="1450" y2="187.5" stroke="#D9DEE7" stroke-width="1"/>
<text x="840.0" y="191.5" font-family="Arial, Helvetica, sans-serif" font-size="12" font-weight="400" text-anchor="end" fill="#66707A">75</text>
<line x1="850" y1="135.0" x2="1450" y2="135.0" stroke="#D9DEE7" stroke-width="1"/>
<text x="840.0" y="139.0" font-family="Arial, Helvetica, sans-serif" font-size="12" font-weight="400" text-anchor="end" fill="#66707A">100</text>
<line x1="850" y1="345" x2="1450" y2="345" stroke="#8B949E" stroke-width="1.2"/>
<line x1="850" y1="135" x2="850" y2="345" stroke="#8B949E" stroke-width="1.2"/>
<text x="850.0" y="123.0" font-family="Arial, Helvetica, sans-serif" font-size="13" font-weight="400" text-anchor="start" fill="#66707A">Day 7 (%)</text>
<rect x="875.0" y="139.2" width="26" height="205.8" rx="3" fill="#C9CDD4"/>
<rect x="907.0" y="172.8" width="26" height="172.2" rx="3" fill="#FFB3BA"/>
<text x="903.0" y="367.0" font-family="Arial, Helvetica, sans-serif" font-size="13" font-weight="400" text-anchor="middle" fill="#22272E">A</text>
<rect x="995.0" y="143.4" width="26" height="201.6" rx="3" fill="#C9CDD4"/>
<rect x="1027.0" y="210.6" width="26" height="134.4" rx="3" fill="#BAE1FF"/>
<text x="1023.0" y="367.0" font-family="Arial, Helvetica, sans-serif" font-size="13" font-weight="400" text-anchor="middle" fill="#22272E">B</text>
<rect x="1115.0" y="147.6" width="26" height="197.4" rx="3" fill="#C9CDD4"/>
<rect x="1147.0" y="227.4" width="26" height="117.6" rx="3" fill="#BAFFC9"/>
<text x="1143.0" y="367.0" font-family="Arial, Helvetica, sans-serif" font-size="13" font-weight="400" text-anchor="middle" fill="#22272E">C</text>
<rect x="1235.0" y="151.8" width="26" height="193.2" rx="3" fill="#C9CDD4"/>
<rect x="1267.0" y="261.0" width="26" height="84.0" rx="3" fill="#FFD59E"/>
<text x="1263.0" y="367.0" font-family="Arial, Helvetica, sans-serif" font-size="13" font-weight="400" text-anchor="middle" fill="#22272E">D</text>
<rect x="1355.0" y="143.4" width="26" height="201.6" rx="3" fill="#C9CDD4"/>
<rect x="1387.0" y="193.8" width="26" height="151.2" rx="3" fill="#D7C7FF"/>
<text x="1383.0" y="367.0" font-family="Arial, Helvetica, sans-serif" font-size="13" font-weight="400" text-anchor="middle" fill="#22272E">E</text>
<rect x="1030" y="100" width="18" height="12" fill="#C9CDD4"/>
<text x="1056.0" y="111.0" font-family="Arial, Helvetica, sans-serif" font-size="13" font-weight="700" text-anchor="start" fill="#66707A">Control</text>
<rect x="1135" y="100" width="18" height="12" fill="#FFB3BA"/>
<text x="1161.0" y="111.0" font-family="Arial, Helvetica, sans-serif" font-size="13" font-weight="700" text-anchor="start" fill="#66707A">NaCl-150mM</text>
<rect x="220" y="465" width="1160" height="365" fill="#FFFFFF" stroke="#D9DEE7" rx="6"/>
<text x="238.0" y="499.0" font-family="Arial, Helvetica, sans-serif" font-size="30" font-weight="700" text-anchor="start" fill="#22272E">c</text>
<text x="270.0" y="498.0" font-family="Arial, Helvetica, sans-serif" font-size="20" font-weight="700" text-anchor="start" fill="#22272E">Seedling-vigour relationship under salt treatment</text>
<line x1="360.0" y1="755" x2="360.0" y2="550" stroke="#D9DEE7" stroke-width="1"/>
<text x="360.0" y="779.0" font-family="Arial, Helvetica, sans-serif" font-size="12" font-weight="400" text-anchor="middle" fill="#66707A">0</text>
<line x1="565.0" y1="755" x2="565.0" y2="550" stroke="#D9DEE7" stroke-width="1"/>
<text x="565.0" y="779.0" font-family="Arial, Helvetica, sans-serif" font-size="12" font-weight="400" text-anchor="middle" fill="#66707A">25</text>
<line x1="770.0" y1="755" x2="770.0" y2="550" stroke="#D9DEE7" stroke-width="1"/>
<text x="770.0" y="779.0" font-family="Arial, Helvetica, sans-serif" font-size="12" font-weight="400" text-anchor="middle" fill="#66707A">50</text>
<line x1="975.0" y1="755" x2="975.0" y2="550" stroke="#D9DEE7" stroke-width="1"/>
<text x="975.0" y="779.0" font-family="Arial, Helvetica, sans-serif" font-size="12" font-weight="400" text-anchor="middle" fill="#66707A">75</text>
<line x1="1180.0" y1="755" x2="1180.0" y2="550" stroke="#D9DEE7" stroke-width="1"/>
<text x="1180.0" y="779.0" font-family="Arial, Helvetica, sans-serif" font-size="12" font-weight="400" text-anchor="middle" fill="#66707A">100</text>
<circle cx="1032.4" cy="550.0" r="19" fill="#FFB3BA" stroke="white" stroke-width="3"/>
<text x="1056.4" y="555.0" font-family="Arial, Helvetica, sans-serif" font-size="14" font-weight="700" text-anchor="start" fill="#22272E">Wheat-A</text>
<circle cx="884.8" cy="626.1" r="19" fill="#BAE1FF" stroke="white" stroke-width="3"/>
<text x="908.8" y="631.1" font-family="Arial, Helvetica, sans-serif" font-size="14" font-weight="700" text-anchor="start" fill="#22272E">Wheat-B</text>
<circle cx="819.2" cy="658.8" r="19" fill="#BAFFC9" stroke="white" stroke-width="3"/>
<text x="843.2" y="663.8" font-family="Arial, Helvetica, sans-serif" font-size="14" font-weight="700" text-anchor="start" fill="#22272E">Wheat-C</text>
<circle cx="688.0" cy="699.4" r="19" fill="#FFD59E" stroke="white" stroke-width="3"/>
<text x="712.0" y="704.4" font-family="Arial, Helvetica, sans-serif" font-size="14" font-weight="700" text-anchor="start" fill="#22272E">Wheat-D</text>
<circle cx="950.4" cy="593.8" r="19" fill="#D7C7FF" stroke="white" stroke-width="3"/>
<text x="974.4" y="598.8" font-family="Arial, Helvetica, sans-serif" font-size="14" font-weight="700" text-anchor="start" fill="#22272E">Wheat-E</text>
<text x="770.0" y="807.0" font-family="Arial, Helvetica, sans-serif" font-size="14" font-weight="400" text-anchor="middle" fill="#66707A">Salt-treated Day 7 germination (%)</text>
<text x="302.0" y="652.5" font-family="Arial, Helvetica, sans-serif" font-size="14" font-weight="400" text-anchor="middle" fill="#66707A">Vigour index</text>
</svg>