<svg xmlns="http://www.w3.org/2000/svg" width="1600" height="1040" viewBox="0 0 1600 1040">
<rect width="1600" height="1040" fill="#F4F5F7"/>
<text x="40.0" y="48.0" font-family="Arial, Helvetica, sans-serif" font-size="28" font-weight="700" text-anchor="start" fill="#2F3437">Figure 1. Synthetic wheat germination workflow under salt treatment</text>
<text x="40.0" y="78.0" font-family="Arial, Helvetica, sans-serif" font-size="16" font-weight="400" text-anchor="start" fill="#6F7782">Candy-color highlights on a premium-gray scaffold; all values are synthetic.</text>
<rect x="40" y="110" width="470" height="260" fill="white" stroke="#D9DDE3" rx="8"/>
<text x="58.0" y="144.0" font-family="Arial, Helvetica, sans-serif" font-size="30" font-weight="700" text-anchor="start" fill="#2F3437">a</text>
<text x="98.0" y="141.0" font-family="Arial, Helvetica, sans-serif" font-size="18" font-weight="700" text-anchor="start" fill="#2F3437">Runnable wheat demo design</text>
<circle cx="82" cy="165" r="14" fill="#FFB3BA"/>
<text x="112.0" y="171.0" font-family="Arial, Helvetica, sans-serif" font-size="19" font-weight="400" text-anchor="start" fill="#2F3437">4 mock wheat genotypes</text>
<circle cx="82" cy="208" r="14" fill="#BAE1FF"/>
<text x="112.0" y="214.0" font-family="Arial, Helvetica, sans-serif" font-size="19" font-weight="400" text-anchor="start" fill="#2F3437">2 treatments</text>
<circle cx="82" cy="251" r="14" fill="#BAFFC9"/>
<text x="112.0" y="257.0" font-family="Arial, Helvetica, sans-serif" font-size="19" font-weight="400" text-anchor="start" fill="#2F3437">4 biological replicates</text>
<circle cx="82" cy="294" r="14" fill="#D7C7FF"/>
<text x="112.0" y="300.0" font-family="Arial, Helvetica, sans-serif" font-size="19" font-weight="400" text-anchor="start" fill="#2F3437">50 seeds per replicate</text>
<text x="62.0" y="342.0" font-family="Arial, Helvetica, sans-serif" font-size="15" font-weight="400" text-anchor="start" fill="#6F7782">Input: CSV -> analysis -> composite SVG -> manuscript -> QC</text>
<rect x="550" y="110" width="500" height="260" fill="white" stroke="#D9DDE3" rx="8"/>
<text x="568.0" y="144.0" font-family="Arial, Helvetica, sans-serif" font-size="30" font-weight="700" text-anchor="start" fill="#2F3437">b</text>
<text x="608.0" y="141.0" font-family="Arial, Helvetica, sans-serif" font-size="18" font-weight="700" text-anchor="start" fill="#2F3437">Day 7 germination endpoint</text>
<line x1="610" y1="315.0" x2="990" y2="315.0" stroke="#D9DDE3" stroke-width="1"/>
<text x="600.0" y="320.0" font-family="Arial, Helvetica, sans-serif" font-size="12" font-weight="400" text-anchor="end" fill="#6F7782">0</text>
<line x1="610" y1="281.2" x2="990" y2="281.2" stroke="#D9DDE3" stroke-width="1"/>
<text x="600.0" y="286.2" font-family="Arial, Helvetica, sans-serif" font-size="12" font-weight="400" text-anchor="end" fill="#6F7782">25</text>
<line x1="610" y1="247.5" x2="990" y2="247.5" stroke="#D9DDE3" stroke-width="1"/>
<text x="600.0" y="252.5" font-family="Arial, Helvetica, sans-serif" font-size="12" font-weight="400" text-anchor="end" fill="#6F7782">50</text>
<line x1="610" y1="213.8" x2="990" y2="213.8" stroke="#D9DDE3" stroke-width="1"/>
<text x="600.0" y="218.8" font-family="Arial, Helvetica, sans-serif" font-size="12" font-weight="400" text-anchor="end" fill="#6F7782">75</text>
<line x1="610" y1="180.0" x2="990" y2="180.0" stroke="#D9DDE3" stroke-width="1"/>
<text x="600.0" y="185.0" font-family="Arial, Helvetica, sans-serif" font-size="12" font-weight="400" text-anchor="end" fill="#6F7782">100</text>
<rect x="628.0" y="180.0" width="26.0" height="135.0" fill="#C9CDD4" rx="3"/>
<rect x="660.0" y="209.7" width="26.0" height="105.3" fill="#FFB3BA" rx="3"/>
<text x="657.0" y="335.0" font-family="Arial, Helvetica, sans-serif" font-size="12" font-weight="400" text-anchor="middle" fill="#2F3437">A</text>
<rect x="723.0" y="184.1" width="26.0" height="130.9" fill="#C9CDD4" rx="3"/>
<rect x="755.0" y="232.7" width="26.0" height="82.3" fill="#BAE1FF" rx="3"/>
<text x="752.0" y="335.0" font-family="Arial, Helvetica, sans-serif" font-size="12" font-weight="400" text-anchor="middle" fill="#2F3437">B</text>
<rect x="818.0" y="186.8" width="26.0" height="128.2" fill="#C9CDD4" rx="3"/>
<rect x="850.0" y="248.8" width="26.0" height="66.2" fill="#BAFFC9" rx="3"/>
<text x="847.0" y="335.0" font-family="Arial, Helvetica, sans-serif" font-size="12" font-weight="400" text-anchor="middle" fill="#2F3437">C</text>
<rect x="913.0" y="183.4" width="26.0" height="131.6" fill="#C9CDD4" rx="3"/>
<rect x="945.0" y="266.4" width="26.0" height="48.6" fill="#FFD59E" rx="3"/>
<text x="942.0" y="335.0" font-family="Arial, Helvetica, sans-serif" font-size="12" font-weight="400" text-anchor="middle" fill="#2F3437">WT</text>
<text x="610.0" y="165.0" font-family="Arial, Helvetica, sans-serif" font-size="14" font-weight="700" text-anchor="start" fill="#6F7782">Control</text>
<rect x="680" y="154" width="18" height="12" fill="#C9CDD4"/>
<text x="715.0" y="165.0" font-family="Arial, Helvetica, sans-serif" font-size="14" font-weight="700" text-anchor="start" fill="#6F7782">NaCl-150mM</text>
<rect x="812" y="154" width="18" height="12" fill="#FFB3BA"/>
<text x="586.0" y="176.0" font-family="Arial, Helvetica, sans-serif" font-size="13" font-weight="400" text-anchor="end" fill="#6F7782">Germination (%)</text>
<rect x="1090" y="110" width="470" height="260" fill="white" stroke="#D9DDE3" rx="8"/>
<text x="1108.0" y="144.0" font-family="Arial, Helvetica, sans-serif" font-size="30" font-weight="700" text-anchor="start" fill="#2F3437">c</text>
<text x="1148.0" y="141.0" font-family="Arial, Helvetica, sans-serif" font-size="18" font-weight="700" text-anchor="start" fill="#2F3437">Salt-treatment trajectory</text>
<line x1="1140" y1="315.0" x2="1500" y2="315.0" stroke="#D9DDE3" stroke-width="1"/>
<line x1="1140" y1="276.2" x2="1500" y2="276.2" stroke="#D9DDE3" stroke-width="1"/>
<line x1="1140" y1="237.5" x2="1500" y2="237.5" stroke="#D9DDE3" stroke-width="1"/>
<line x1="1140" y1="198.8" x2="1500" y2="198.8" stroke="#D9DDE3" stroke-width="1"/>
<line x1="1140" y1="160.0" x2="1500" y2="160.0" stroke="#D9DDE3" stroke-width="1"/>
<polyline points="1140.0,307.2 1200.0,277.8 1260.0,240.6 1320.0,215.8 1380.0,203.4 1440.0,197.2 1500.0,194.1" fill="none" stroke="#FFB3BA" stroke-width="4" stroke-linecap="round"/>
<circle cx="1500.0" cy="194.1" r="5" fill="#FFB3BA"/>
<text x="1508.0" y="198.1" font-family="Arial, Helvetica, sans-serif" font-size="12" font-weight="700" text-anchor="start" fill="#2F3437">A</text>
<polyline points="1140.0,311.1 1200.0,288.6 1260.0,258.4 1320.0,238.3 1380.0,226.7 1440.0,222.0 1500.0,220.4" fill="none" stroke="#BAE1FF" stroke-width="4" stroke-linecap="round"/>
<circle cx="1500.0" cy="220.4" r="5" fill="#BAE1FF"/>
<text x="1508.0" y="224.4" font-family="Arial, Helvetica, sans-serif" font-size="12" font-weight="700" text-anchor="start" fill="#2F3437">B</text>
<polyline points="1140.0,313.4 1200.0,293.3 1260.0,270.1 1320.0,253.8 1380.0,244.5 1440.0,241.4 1500.0,239.1" fill="none" stroke="#BAFFC9" stroke-width="4" stroke-linecap="round"/>
<circle cx="1500.0" cy="239.1" r="5" fill="#BAFFC9"/>
<text x="1508.0" y="243.1" font-family="Arial, Helvetica, sans-serif" font-size="12" font-weight="700" text-anchor="start" fill="#2F3437">C</text>
<polyline points="1140.0,313.4 1200.0,299.5 1260.0,281.7 1320.0,268.5 1380.0,262.3 1440.0,259.2 1500.0,259.2" fill="none" stroke="#FFD59E" stroke-width="4" stroke-linecap="round"/>
<circle cx="1500.0" cy="259.2" r="5" fill="#FFD59E"/>
<text x="1508.0" y="263.2" font-family="Arial, Helvetica, sans-serif" font-size="12" font-weight="700" text-anchor="start" fill="#2F3437">WT</text>
<text x="1320.0" y="347.0" font-family="Arial, Helvetica, sans-serif" font-size="13" font-weight="400" text-anchor="middle" fill="#6F7782">Day after sowing</text>
<rect x="40" y="410" width="470" height="285" fill="white" stroke="#D9DDE3" rx="8"/>
<text x="58.0" y="444.0" font-family="Arial, Helvetica, sans-serif" font-size="30" font-weight="700" text-anchor="start" fill="#2F3437">d</text>
<text x="98.0" y="441.0" font-family="Arial, Helvetica, sans-serif" font-size="18" font-weight="700" text-anchor="start" fill="#2F3437">Salt-retention ranking</text>
<rect x="140.0" y="472.0" width="275.3" height="28.0" fill="#FFB3BA" rx="3"/>
<text x="62.0" y="492.0" font-family="Arial, Helvetica, sans-serif" font-size="16" font-weight="700" text-anchor="start" fill="#2F3437">A</text>
<text x="425.3" y="492.0" font-family="Arial, Helvetica, sans-serif" font-size="15" font-weight="700" text-anchor="start" fill="#2F3437">78.0%</text>
<rect x="140.0" y="520.0" width="222.0" height="28.0" fill="#BAE1FF" rx="3"/>
<text x="62.0" y="540.0" font-family="Arial, Helvetica, sans-serif" font-size="16" font-weight="700" text-anchor="start" fill="#2F3437">B</text>
<text x="372.0" y="540.0" font-family="Arial, Helvetica, sans-serif" font-size="15" font-weight="700" text-anchor="start" fill="#2F3437">62.9%</text>
<rect x="140.0" y="568.0" width="182.0" height="28.0" fill="#BAFFC9" rx="3"/>
<text x="62.0" y="588.0" font-family="Arial, Helvetica, sans-serif" font-size="16" font-weight="700" text-anchor="start" fill="#2F3437">C</text>
<text x="332.0" y="588.0" font-family="Arial, Helvetica, sans-serif" font-size="15" font-weight="700" text-anchor="start" fill="#2F3437">51.6%</text>
<rect x="140.0" y="616.0" width="130.3" height="28.0" fill="#FFD59E" rx="3"/>
<text x="62.0" y="636.0" font-family="Arial, Helvetica, sans-serif" font-size="16" font-weight="700" text-anchor="start" fill="#2F3437">WT</text>
<text x="280.3" y="636.0" font-family="Arial, Helvetica, sans-serif" font-size="15" font-weight="700" text-anchor="start" fill="#2F3437">36.9%</text>
<text x="62.0" y="670.0" font-family="Arial, Helvetica, sans-serif" font-size="14" font-weight="400" text-anchor="start" fill="#6F7782">Retention = salt Day 7 mean / control Day 7 mean</text>
<rect x="550" y="410" width="500" height="285" fill="white" stroke="#D9DDE3" rx="8"/>
<text x="568.0" y="444.0" font-family="Arial, Helvetica, sans-serif" font-size="30" font-weight="700" text-anchor="start" fill="#2F3437">e</text>
<text x="608.0" y="441.0" font-family="Arial, Helvetica, sans-serif" font-size="18" font-weight="700" text-anchor="start" fill="#2F3437">Seedling vigor under salt</text>
<rect x="620.0" y="480.0" width="42.0" height="170.0" fill="#FFB3BA" rx="3"/>
<text x="641.0" y="670.0" font-family="Arial, Helvetica, sans-serif" font-size="12" font-weight="400" text-anchor="middle" fill="#2F3437">A</text>
<text x="641.0" y="472.0" font-family="Arial, Helvetica, sans-serif" font-size="12" font-weight="700" text-anchor="middle" fill="#2F3437">538</text>
<rect x="698.0" y="542.6" width="42.0" height="107.4" fill="#BAE1FF" rx="3"/>
<text x="719.0" y="670.0" font-family="Arial, Helvetica, sans-serif" font-size="12" font-weight="400" text-anchor="middle" fill="#2F3437">B</text>
<text x="719.0" y="534.6" font-family="Arial, Helvetica, sans-serif" font-size="12" font-weight="700" text-anchor="middle" fill="#2F3437">340</text>
<rect x="776.0" y="577.6" width="42.0" height="72.4" fill="#BAFFC9" rx="3"/>
<text x="797.0" y="670.0" font-family="Arial, Helvetica, sans-serif" font-size="12" font-weight="400" text-anchor="middle" fill="#2F3437">C</text>
<text x="797.0" y="569.6" font-family="Arial, Helvetica, sans-serif" font-size="12" font-weight="700" text-anchor="middle" fill="#2F3437">229</text>
<rect x="854.0" y="609.6" width="42.0" height="40.4" fill="#FFD59E" rx="3"/>
<text x="875.0" y="670.0" font-family="Arial, Helvetica, sans-serif" font-size="12" font-weight="400" text-anchor="middle" fill="#2F3437">WT</text>
<text x="875.0" y="601.6" font-family="Arial, Helvetica, sans-serif" font-size="12" font-weight="700" text-anchor="middle" fill="#2F3437">128</text>
<text x="620.0" y="460.0" font-family="Arial, Helvetica, sans-serif" font-size="14" font-weight="400" text-anchor="start" fill="#6F7782">Synthetic vigor index = germination % x seedling length</text>
<rect x="1090" y="410" width="470" height="285" fill="white" stroke="#D9DDE3" rx="8"/>
<text x="1108.0" y="444.0" font-family="Arial, Helvetica, sans-serif" font-size="30" font-weight="700" text-anchor="start" fill="#2F3437">f</text>
<text x="1148.0" y="441.0" font-family="Arial, Helvetica, sans-serif" font-size="18" font-weight="700" text-anchor="start" fill="#2F3437">Five-pass QC gate</text>
<circle cx="1135" cy="535" r="26" fill="#FFB3BA"/>
<text x="1135.0" y="542.0" font-family="Arial, Helvetica, sans-serif" font-size="20" font-weight="700" text-anchor="middle" fill="#2F3437">1</text>
<text x="1135.0" y="590.0" font-family="Arial, Helvetica, sans-serif" font-size="13" font-weight="700" text-anchor="middle" fill="#2F3437">Evidence</text>
<circle cx="1213" cy="535" r="26" fill="#BAE1FF"/>
<text x="1213.0" y="542.0" font-family="Arial, Helvetica, sans-serif" font-size="20" font-weight="700" text-anchor="middle" fill="#2F3437">2</text>
<text x="1213.0" y="590.0" font-family="Arial, Helvetica, sans-serif" font-size="13" font-weight="700" text-anchor="middle" fill="#2F3437">Citation</text>
<circle cx="1291" cy="535" r="26" fill="#BAFFC9"/>
<text x="1291.0" y="542.0" font-family="Arial, Helvetica, sans-serif" font-size="20" font-weight="700" text-anchor="middle" fill="#2F3437">3</text>
<text x="1291.0" y="590.0" font-family="Arial, Helvetica, sans-serif" font-size="13" font-weight="700" text-anchor="middle" fill="#2F3437">Language</text>
<circle cx="1369" cy="535" r="26" fill="#D7C7FF"/>
<text x="1369.0" y="542.0" font-family="Arial, Helvetica, sans-serif" font-size="20" font-weight="700" text-anchor="middle" fill="#2F3437">4</text>
<text x="1369.0" y="590.0" font-family="Arial, Helvetica, sans-serif" font-size="13" font-weight="700" text-anchor="middle" fill="#2F3437">Figure</text>
<circle cx="1447" cy="535" r="26" fill="#C9CDD4"/>
<text x="1447.0" y="542.0" font-family="Arial, Helvetica, sans-serif" font-size="20" font-weight="700" text-anchor="middle" fill="#2F3437">5</text>
<text x="1447.0" y="590.0" font-family="Arial, Helvetica, sans-serif" font-size="13" font-weight="700" text-anchor="middle" fill="#2F3437">Format</text>
<text x="1120.0" y="650.0" font-family="Arial, Helvetica, sans-serif" font-size="15" font-weight="400" text-anchor="start" fill="#6F7782">Demo writes qc/five_pass_qc_report.md and qc_results.csv</text>
<text x="40.0" y="735.0" font-family="Arial, Helvetica, sans-serif" font-size="22" font-weight="700" text-anchor="start" fill="#2F3437">Claim boundary</text>
<text x="70.0" y="775.0" font-family="Arial, Helvetica, sans-serif" font-size="19" font-weight="400" text-anchor="start" fill="#2F3437">Supported: synthetic Mock-Wheat-A ranks highest for Day 7 salt germination and retention.</text>
<circle cx="52" cy="769" r="6" fill="#D7C7FF"/>
<text x="70.0" y="807.0" font-family="Arial, Helvetica, sans-serif" font-size="19" font-weight="400" text-anchor="start" fill="#2F3437">Not supported: mechanism, real cultivar performance, field tolerance, or breeding recommendation.</text>
<circle cx="52" cy="801" r="6" fill="#D7C7FF"/>
<text x="70.0" y="839.0" font-family="Arial, Helvetica, sans-serif" font-size="19" font-weight="400" text-anchor="start" fill="#2F3437">Required before real writing: documented search plus 200-paper full-text reading matrix.</text>
<circle cx="52" cy="833" r="6" fill="#D7C7FF"/>
</svg>